<svg xmlns="http://www.w3.org/2000/svg" width="16" height="16" viewBox="0 0 16 16">
  <path fill="#F5A623" d="M13,3 L13,11 C13,12.1045695 12.1045695,13 11,13 L3,13 L3,14 L11,14 C12.6568542,14 14,12.6568542 14,11 L14,3 L13,3 Z M11,1 L11,9 C11,10.1045695 10.1045695,11 9,11 L1,11 L1,12 L9,12 C10.6568542,12 12,10.6568542 12,9 L12,1 L11,1 Z M10,0 L10,8 C10,9.1045695 9.1045695,10 8,10 L0,10 L0,1 L8,1 C9.1045695,1 10,1.8954305 10,3 L10,0 Z M9,3 L9,8 C9,8.55228475 8.55228475,9 8,9 L1,9 L1,2 L8,2 C8.55228475,2 9,2.44771525 9,3 Z"/>
</svg>